<svg width="175" height="175" viewBox="0 0 175 175" fill="none" xmlns="http://www.w3.org/2000/svg">
<path fill-rule="evenodd" clip-rule="evenodd" d="M161.882 147.253C161.389 143.93 160.928 140.701 160.975 137.331C161.014 136.323 161.092 135.338 161.233 134.345C161.921 130.224 163.711 126.346 165.439 122.57C167.323 118.559 169.403 114.658 171.068 110.545C172.202 107.582 173.046 104.642 173.687 101.53C174.641 96.2685 174.993 90.991 174.899 85.6431C174.79 82.4531 174.571 79.3257 174.141 76.1592C173.742 73.6104 173.218 71.1554 172.523 68.6691C172.194 67.5901 171.834 66.5268 171.459 65.4635C169.395 60.0765 166.557 55.0492 164.251 49.7639C163.046 46.9649 161.905 44.2206 161.326 41.2104C160.724 37.6061 160.998 34.0956 161.483 30.4834L161.882 27.7469L147.175 13.0325C143.852 13.5251 140.631 13.9863 137.261 13.9394C136.252 13.9003 135.267 13.8222 134.266 13.6814C130.146 13.0012 126.276 11.203 122.5 9.46724C118.489 7.58297 114.595 5.50325 110.483 3.8379C107.519 2.70422 104.587 1.85982 101.476 1.2187C96.2137 0.272656 90.9362 -0.0791771 85.5962 0.0146452C82.4062 0.124104 79.2866 0.343023 76.1201 0.773042C73.5713 1.17179 71.1163 1.69563 68.6378 2.39148C67.5589 2.71985 66.4955 3.07951 65.4322 3.4548C60.0453 5.51889 55.0258 8.36483 49.7404 10.6635C46.9492 11.8675 44.1971 13.0168 41.1948 13.5876C37.5905 14.1896 34.0799 13.916 30.4756 13.4312L27.7391 13.0325L13.0325 27.7469C13.525 31.0776 13.9863 34.2989 13.9394 37.6686C13.9003 38.6772 13.8221 39.6624 13.6814 40.6553C12.9934 44.7757 11.2029 48.6537 9.47505 52.43C7.59078 56.4409 5.51106 60.3424 3.84571 64.4471C2.71203 67.4181 1.86763 70.3501 1.22651 73.4618C0.272648 78.7393 -0.0791857 84.009 0.0146365 89.3569C0.124096 92.5469 0.343014 95.6743 0.773033 98.8408C1.17178 101.39 1.69562 103.845 2.39147 106.331C2.71985 107.41 3.0795 108.473 3.45479 109.537C5.51888 114.931 8.357 119.951 10.6635 125.236C11.8675 128.035 13.009 130.779 13.5876 133.79C14.1896 137.394 13.916 140.904 13.4312 144.517L13.0325 147.253L27.7391 161.968C31.0698 161.475 34.2832 161.014 37.653 161.061C38.6616 161.1 39.6467 161.178 40.6475 161.319C44.7679 161.999 48.638 163.797 52.4144 165.525C56.1047 167.253 59.7012 169.168 63.4463 170.756C66.7301 172.085 69.967 173.062 73.4384 173.773C78.7002 174.727 83.9699 175.079 89.31 174.985C92.4999 174.876 95.6195 174.657 98.786 174.227C101.335 173.828 103.782 173.304 106.268 172.609C107.347 172.28 108.411 171.921 109.474 171.545C114.861 169.481 119.88 166.635 125.166 164.337C127.793 163.203 130.373 162.124 133.172 161.514C136.948 160.787 140.639 161.061 144.431 161.569L147.167 161.968L161.874 147.253H161.882Z" fill="#2B2A29"/>
<path fill-rule="evenodd" clip-rule="evenodd" d="M89.9981 111.577L107.332 106.3C107.332 106.3 107.261 106.222 107.23 106.19C108.325 99.3021 106.98 98.7079 106.222 96.6125C109.951 97.1677 110.983 102.445 111.648 105.44C111.913 104.838 112.508 104.408 113.196 104.408C114.134 104.408 114.9 105.189 114.9 106.151C114.9 107.113 114.142 107.895 113.196 107.895C112.906 107.895 112.641 107.816 112.398 107.691C113.297 109.435 114.712 110.639 115.87 112.836C113.18 116.284 108.059 113.931 108.059 113.931C108.723 112.265 108.864 110.842 108.731 109.669L93.0942 114.337L110.545 121.468C111.601 121.898 110.318 125.056 109.263 124.626L89.8105 116.745C89.9746 115.252 90.0841 113.297 89.9903 111.585L89.9981 111.577ZM85.0177 116.628L64.4863 122.883C63.3995 123.211 62.4144 119.943 63.5011 119.615L82.508 113.845L66.4331 107.363C66.1907 108.52 66.1985 109.951 66.7067 111.663C66.7067 111.663 61.3901 113.532 59.0289 109.849C60.3972 107.762 61.914 106.698 62.9695 105.049C62.7193 105.158 62.4456 105.197 62.1563 105.174C61.2259 105.088 60.5379 104.236 60.6239 103.29C60.7099 102.336 61.5465 101.632 62.4769 101.718C63.1649 101.781 63.72 102.258 63.9311 102.891C64.8772 99.9745 66.3862 94.8143 70.1547 94.6032C69.2087 96.6282 67.8169 97.0817 68.2626 104.048C68.2235 104.071 68.1922 104.111 68.1453 104.15L84.877 110.991C84.7128 112.797 84.8301 114.978 85.0021 116.636L85.0177 116.628Z" fill="#DCCF73"/>
<path fill-rule="evenodd" clip-rule="evenodd" d="M158.199 146.033C156.471 134.751 158.097 130.67 161.365 123.164C166.299 111.835 171.287 106.823 171.467 87.5039C171.295 68.1843 166.299 63.1648 161.365 51.8436C158.097 44.3378 156.463 40.2566 158.199 28.9744L155.134 25.9096L152.069 28.9744L130.17 50.8819C128.285 48.6927 126.237 46.6365 124.048 44.7522L134.04 34.7523L145.94 22.8447L149.004 19.7798L145.94 16.715C134.665 18.4429 130.592 16.8166 123.086 13.5407C111.765 8.60718 106.753 3.61114 87.4492 3.43913C68.1374 3.61114 63.1257 8.60718 51.8123 13.5407C44.3144 16.8088 40.2331 18.4429 28.9588 16.715L25.8939 19.7798L28.9588 22.8447L50.8585 44.7522C48.6693 46.6365 46.6208 48.6849 44.7366 50.8819L34.7445 40.882L22.8447 28.9744L19.7799 25.9096L16.715 28.9744C18.4429 40.2566 16.8166 44.3378 13.5485 51.8436C8.615 63.1726 3.62679 68.1843 3.44696 87.5039C3.61897 106.823 8.615 111.843 13.5485 123.164C16.8166 130.67 18.4507 134.751 16.715 146.033L19.7799 149.098L22.8447 146.033L44.7444 124.126C46.6287 126.315 48.6771 128.371 50.8663 130.256L28.9666 152.163L25.9018 155.228L28.9666 158.293C40.2409 156.565 44.3144 158.191 51.8202 161.467C63.1414 166.401 68.1531 171.397 87.457 171.569C106.769 171.397 111.78 166.401 123.094 161.467C130.592 158.199 134.673 156.565 145.947 158.293L149.012 155.228L145.947 152.163L124.048 130.256C126.237 128.371 128.285 126.323 130.17 124.126L152.069 146.041L155.134 149.106L158.199 146.041V146.033ZM87.457 35.5107C116.073 35.5107 139.419 58.8725 139.419 87.5039C139.419 116.135 116.073 139.497 87.457 139.497C58.8412 139.497 35.4873 116.135 35.4873 87.5039C35.4873 58.8725 58.8334 35.5107 87.457 35.5107ZM153.289 33.8923L132.883 54.3064C139.708 63.6261 143.75 75.1037 143.75 87.5039C143.75 99.9041 139.708 111.382 132.883 120.701L153.289 141.123C153.117 138.473 153.14 135.854 153.516 133.172C153.954 130.498 154.704 128.035 155.674 125.518C156.369 123.774 157.112 122.062 157.871 120.349C160.341 114.955 163.273 109.826 165.032 104.134C167.253 96.2919 167.472 87.9495 166.729 79.8652C166.346 76.4641 165.76 73.2429 164.743 69.9669C163.086 65.0022 160.568 60.4518 158.348 55.7294C156.62 51.9452 154.907 48.1142 153.93 44.0564C153.187 40.6318 153.062 37.3402 153.281 33.9001L153.289 33.8923ZM141.03 153.375L120.631 132.969C111.319 139.802 99.8415 143.844 87.4492 143.844C75.0568 143.844 63.5792 139.802 54.2674 132.969L33.861 153.391C36.5115 153.219 39.1229 153.25 41.8125 153.617C43.2823 153.86 44.6819 154.18 46.1126 154.595C51.6951 156.346 56.9804 159.067 62.2188 161.631C64.1734 162.57 66.1202 163.453 68.1374 164.235C77.0896 167.456 87.0348 167.745 96.4092 166.69C99.349 166.291 102.148 165.728 104.986 164.853C109.959 163.195 114.493 160.677 119.216 158.457C123 156.721 126.831 155.025 130.889 154.032C134.134 153.328 137.238 153.172 140.545 153.336C140.701 153.344 140.865 153.359 141.022 153.367L141.03 153.375ZM21.6328 141.116L42.0314 120.709C35.198 111.389 31.1636 99.9119 31.1636 87.5117C31.1636 75.1115 35.2058 63.6339 42.0314 54.3143L21.625 33.8923C21.797 36.5428 21.7658 39.162 21.3983 41.8437C21.1559 43.3136 20.8354 44.7131 20.421 46.1439C18.6696 51.7341 15.9488 57.0116 13.3843 62.2579C12.4461 64.2125 11.5548 66.1593 10.7886 68.1843C7.57514 77.1522 7.27804 87.0895 8.33354 96.4717C8.73228 99.4193 9.29522 102.211 10.1709 105.049C11.8284 110.021 14.346 114.564 16.5664 119.286C18.3022 123.07 20.0066 126.901 20.9839 130.959C21.6876 134.204 21.8439 137.308 21.6798 140.623C21.6719 140.779 21.6563 140.943 21.6485 141.1H21.6407L21.6328 141.116ZM33.8767 21.6407L54.283 42.0548C63.5949 35.2214 75.0725 31.1793 87.4648 31.1793C99.8572 31.1793 111.335 35.2214 120.647 42.0548L141.053 21.6328C138.41 21.8048 135.791 21.7736 133.102 21.4061C131.632 21.1637 130.232 20.8432 128.809 20.4288C123.227 18.6774 117.941 15.9566 112.703 13.3921C110.748 12.4539 108.802 11.5704 106.784 10.7885C97.8322 7.57513 87.8948 7.27803 78.5126 8.33353C75.5728 8.73227 72.7738 9.29521 69.9357 10.1709C64.9709 11.8284 60.4284 14.346 55.706 16.5664C51.9218 18.2943 48.0907 20.0066 44.0329 20.9917C40.6084 21.7345 37.3246 21.8596 33.8923 21.6485H33.8845L33.8767 21.6407ZM51.4136 140.232C52.0547 140.725 52.0782 141.178 52.086 141.921L52.1329 150.185L52.946 150.646L56.3471 146.158C57.0899 145.189 57.5433 144.603 57.8561 144.368C58.2157 144.102 58.4815 144.227 58.7787 144.368L58.9741 143.75L56.3393 142.265L56.136 142.898C56.7146 143.227 56.9726 143.375 56.8318 143.821C56.7771 143.993 56.6911 144.118 56.5816 144.259L54.0875 147.644C53.7201 148.137 53.6497 148.246 53.423 148.653C53.5011 147.965 53.509 147.793 53.5246 147.011L53.6028 142.687C53.6106 142.413 53.6184 142.187 53.6732 142.022C53.8061 141.616 54.0953 141.764 54.4706 141.976L54.6739 141.319L51.6091 139.583L51.4136 140.232ZM57.2931 148.16C56.7224 150.513 57.4808 152.374 58.2001 153.32C58.6848 153.954 59.2165 154.329 59.7951 154.579C60.9209 155.064 61.734 154.939 62.4612 154.579C62.899 154.352 63.3056 154.04 63.6496 153.625C64.236 152.921 64.5956 152.007 64.7755 151.28C65.3853 148.785 64.5722 145.94 62.2579 144.939C59.9983 143.961 58.4659 145.572 57.8639 146.674C57.5824 147.183 57.4104 147.722 57.301 148.168L57.2931 148.16ZM62.0468 145.689C62.7661 146.002 63.1101 146.62 63.2665 147.065C63.4776 147.707 63.5636 148.918 63.1648 150.56C62.9225 151.545 62.5159 152.609 62.0781 153.203C61.7497 153.641 61.3275 153.969 60.6785 153.907C60.4753 153.907 60.272 153.844 60.0765 153.758C58.3095 152.992 58.4581 150.654 58.9037 148.809C59.1774 147.683 59.5683 146.745 60.0218 146.19C60.444 145.666 60.8896 145.502 61.3509 145.517C61.6011 145.525 61.8357 145.58 62.0468 145.674V145.689ZM65.6433 147.66C65.784 147.699 65.917 147.73 66.0577 147.777C66.3783 147.886 66.5815 148.035 66.5033 148.66L65.5964 154.868C65.4479 155.736 65.2446 155.736 64.4783 155.541L64.3767 156.252L70.483 157.839L70.999 154.946L70.4673 154.806C70.2562 155.548 70.0608 156.182 69.5213 156.495C69.1538 156.713 68.8802 156.667 68.3876 156.541L67.6761 156.354C67.0741 156.182 67.0428 155.9 67.0819 155.47L67.981 149.286C68.1296 148.285 68.3563 148.34 69.1069 148.535L69.2086 147.824L65.7371 146.925L65.6355 147.652L65.6433 147.66ZM71.5619 149.536C72.422 149.708 72.3985 149.935 72.2969 151.092L71.9529 154.829C71.8747 155.791 71.7809 157.011 72.5002 158.019C73.0084 158.746 73.7824 159.122 74.5955 159.262C75.3226 159.38 76.0498 159.325 76.6987 158.864C77.7464 158.074 77.8793 156.635 77.9653 155.689L78.3093 151.991C78.3328 151.608 78.3719 151.24 78.5204 151.014C78.669 150.795 78.8175 150.787 79.3023 150.803L79.3648 150.107L76.6752 149.669L76.6127 150.396C77.1835 150.513 77.3398 150.568 77.4571 150.818C77.5666 151.068 77.5431 151.28 77.4571 152.296L77.16 155.556C77.0584 156.557 76.9333 157.659 76.0185 158.09C75.6979 158.238 75.3305 158.277 75.0021 158.222C74.3844 158.121 73.7746 157.745 73.5322 157.003C73.3446 156.44 73.4071 155.83 73.4462 155.4L73.8137 151.397C73.8919 150.623 73.9075 150.474 74.0482 150.271C74.1811 150.076 74.314 150.044 74.9317 150.099L74.9943 149.395L71.6245 148.848L71.5619 149.552H71.5541L71.5619 149.536ZM79.4977 150.959L79.9199 150.982C80.2249 151.014 80.4907 151.1 80.4438 151.694L80.1936 158.058C80.1701 158.457 80.1467 158.715 79.9668 158.887C79.8183 159.02 79.6932 159.02 79.1537 158.989L79.1303 159.716L81.9762 159.919L81.9997 159.168C81.2804 159.122 80.9989 159.098 81.0302 158.285L81.2178 153.555C81.2413 153.031 81.2413 152.937 81.2335 152.343L84.9316 160.13L86.0262 160.208L86.3233 152.593C86.3468 152.101 86.378 151.694 86.6986 151.53C86.8237 151.467 86.9644 151.483 87.3319 151.506L87.3554 150.795L84.5329 150.599L84.5094 151.311C85.002 151.342 85.1818 151.358 85.3304 151.514C85.5336 151.717 85.5258 151.999 85.4945 152.718L85.3694 155.893C85.3304 156.831 85.3304 157.065 85.3694 157.816C84.9394 156.588 84.8065 156.268 84.1419 154.837L82.0309 150.42L79.5056 150.248L79.4821 150.959H79.4977ZM87.5586 153.719H88.0825C88.1607 152.976 88.2623 151.991 88.9269 151.6C89.1771 151.459 89.4116 151.444 89.6227 151.436H90.0762L90.1778 158.699C90.1544 159.466 89.8964 159.473 89.1536 159.489V160.216L92.7579 160.138V159.411C92.0386 159.426 91.7259 159.419 91.7181 158.684L91.6164 151.389H91.9448C92.3827 151.389 92.8752 151.381 93.2662 152.077C93.5633 152.609 93.6258 153.14 93.6649 153.57H94.1887L94.0402 150.607L87.629 150.756L87.5508 153.719H87.5586ZM96.7298 149.974L94.7751 158.09C94.5406 158.981 94.3764 159.215 93.6884 159.294L93.7353 159.982L96.4483 159.669L96.4014 158.973L95.9401 159.028C95.7368 159.036 95.5726 158.965 95.557 158.699C95.557 158.582 95.5804 158.41 95.6039 158.293L95.9714 156.573L98.1058 156.323L98.6844 157.996C98.7235 158.09 98.7469 158.168 98.7548 158.254C98.7704 158.465 98.6687 158.606 98.5827 158.652C98.4811 158.731 98.4342 158.731 97.9729 158.785L98.0198 159.481L101.46 159.082L101.413 158.387C100.694 158.457 100.569 158.434 100.209 157.519L97.4334 149.904L96.7298 149.982V149.974ZM97.8713 155.666L96.1121 155.869L96.589 153.641C96.7298 152.984 96.761 152.796 96.847 152.147C96.9956 152.953 97.105 153.359 97.4022 154.235L97.8791 155.666H97.8713ZM100.6 150.083C101.233 150.005 101.304 149.99 101.444 150.083C101.64 150.201 101.663 150.443 101.687 150.646L102.461 157.136C102.476 157.269 102.508 157.48 102.429 157.644C102.336 157.886 102.148 157.917 101.546 158.074L101.624 158.762L105.127 158.019L105.041 157.3C104.431 157.401 104.212 157.448 104.048 157.112C103.985 156.979 103.954 156.753 103.923 156.51L103.618 153.977C104.353 153.782 104.501 153.774 105.682 155.627C106.44 156.831 106.558 157.034 107.144 157.589L109.044 157.19L108.966 156.565C108.45 156.62 108.317 156.526 107.856 155.846C106.292 153.531 106.081 153.359 104.963 153.445C105.447 153.312 106.081 153.133 106.503 152.288C106.839 151.616 106.831 150.959 106.777 150.49C106.722 150.036 106.573 149.364 106.073 148.864C105.541 148.324 104.955 148.441 104.431 148.543L100.49 149.372L100.569 150.076H100.584L100.6 150.083ZM103.117 149.591C104.126 149.364 104.384 149.309 104.697 149.552C105.064 149.825 105.228 150.404 105.299 150.959C105.377 151.624 105.307 152.327 104.916 152.734C104.642 153.007 104.361 153.07 103.555 153.242L103.117 149.591ZM107.723 148.324C108.465 148.082 108.661 148.027 108.817 148.653L110.021 155.103C110.154 155.846 109.904 155.932 109.177 156.174L109.31 156.862L112.758 155.713L112.633 155.032C111.827 155.298 111.64 155.29 111.491 154.485L110.357 148.418C110.209 147.55 110.389 147.48 111.171 147.19L111.038 146.502L107.605 147.636L107.73 148.316L107.723 148.324ZM112.468 150.975C113.047 153.328 114.478 154.243 115.479 154.438C116.151 154.571 116.745 154.462 117.324 154.212C118.45 153.727 119.052 152.984 119.474 152.116C119.732 151.592 119.919 151.014 120.013 150.412C120.178 149.38 120.068 148.363 119.888 147.636C119.278 145.142 117.363 143.477 115.056 144.477C112.797 145.455 112.265 147.965 112.265 149.317C112.265 149.95 112.359 150.521 112.468 150.975ZM115.228 145.259C115.948 144.947 116.503 145.173 116.823 145.416C117.277 145.768 117.887 146.682 118.285 148.324C118.528 149.309 118.669 150.498 118.567 151.311C118.489 151.929 118.301 152.515 117.746 152.984C117.582 153.14 117.386 153.25 117.199 153.336C115.432 154.102 114.517 152.093 114.063 150.248C113.79 149.122 113.688 148.058 113.813 147.261C113.931 146.502 114.212 146.026 114.595 145.674C114.798 145.486 115.017 145.353 115.228 145.259ZM121.139 148.527C121.468 149.513 121.522 149.716 121.984 151.499L122.445 151.24V150.466C122.742 150.615 123.453 150.959 124.509 150.365C125.088 150.036 125.518 149.513 125.752 149.02C126.12 148.215 126.159 147.167 125.869 146.26C125.377 144.728 124.376 144.532 123.649 144.446C123.321 144.399 122.984 144.399 122.648 144.368C121.913 144.329 121.17 144.235 120.944 143.539C120.858 143.266 120.826 142.851 121.03 142.468C121.17 142.226 121.382 142.069 121.569 141.96C122.054 141.686 122.617 141.647 123.023 141.843C123.438 142.03 123.704 142.499 123.938 142.89L124.321 142.671L123.547 140.083L123.109 140.326L123.133 140.943C122.844 140.865 122.163 140.678 121.264 141.186C120.178 141.804 119.497 143.25 119.998 144.806C120.482 146.33 121.483 146.409 122.328 146.471C122.633 146.495 122.93 146.526 123.227 146.549C123.852 146.588 124.259 146.628 124.579 146.948C124.767 147.136 124.861 147.355 124.908 147.495C125.111 148.137 124.978 149.09 124.181 149.544C123.422 149.974 122.797 149.653 122.586 149.528C122.062 149.223 121.827 148.825 121.53 148.316L121.139 148.543V148.527ZM47.3323 28.2004L47.8014 27.9033C48.3566 27.5749 48.552 27.6844 48.8491 28.1613L52.344 33.7515C52.5864 34.1894 52.4926 34.4083 52.1407 34.6741L51.5934 35.0181L51.9687 35.6202L56.2454 32.9462C56.8709 32.524 57.5199 32.0862 57.8092 31.2731C58.0828 30.4521 57.8092 29.639 57.4808 29.0995C56.8553 28.0909 55.6747 27.4967 54.0015 28.2942C54.6661 27.6609 55.2994 26.582 54.5566 25.3935C54.1579 24.7602 53.4777 24.3224 52.7271 24.3302C52.2033 24.3302 51.8045 24.557 51.3745 24.7993L46.9492 27.5671L47.3401 28.1926L47.3323 28.2004ZM50.5536 26.1676C51.3901 25.675 52.1016 25.3466 52.8913 26.6054C53.3682 27.356 53.3135 27.8486 53.29 27.9893C53.2197 28.4271 52.8913 28.6695 52.6098 28.8571L51.9374 29.2793L50.147 26.4178L50.5457 26.1676H50.5536ZM52.3049 29.897L53.0946 29.4044C53.3604 29.2559 53.7122 29.0526 54.2205 29.1308C54.9632 29.2559 55.3932 29.9205 55.5731 30.2019C56.1751 31.1714 56.1204 31.7422 55.8858 32.1487C55.7216 32.4458 55.4636 32.6022 55.1743 32.782C54.4316 33.2433 54.1657 32.8759 53.8842 32.4146L52.3049 29.897ZM57.5902 26.4256C58.5988 28.6851 60.5847 29.3888 61.9373 29.4514C62.8365 29.4983 63.6183 29.295 64.3532 28.9666C65.7919 28.3255 66.5112 27.5045 66.9881 26.582C67.2696 26.0268 67.465 25.4248 67.5276 24.815C67.637 23.7673 67.3868 22.7743 67.0741 22.0707C66.0108 19.6782 63.2978 18.2865 60.3424 19.6078C57.4573 20.8901 57.0117 23.4624 57.1524 24.8072C57.2149 25.4405 57.4026 25.9956 57.5902 26.4256ZM60.6395 20.3506C61.562 19.944 62.3204 20.0926 62.7739 20.288C63.415 20.5773 64.3142 21.3983 65.0178 22.9698C65.44 23.9158 65.745 25.073 65.7059 25.9017C65.6746 26.5194 65.4791 27.1371 64.7911 27.6844C64.5878 27.8642 64.3454 27.9971 64.0952 28.1144C61.8357 29.123 60.4127 27.2465 59.6231 25.4795C59.1461 24.4006 58.8959 23.3607 58.9741 22.5398C59.0445 21.7736 59.3729 21.2575 59.842 20.8588C60.1 20.6399 60.3658 20.4757 60.6395 20.3584V20.3506ZM66.6988 18.138C67.3399 17.9894 67.7621 17.8956 68.0436 18.2709C68.1452 18.4116 68.1765 18.568 68.2156 18.7243L69.5682 24.5882C69.6699 25.0417 69.7559 25.4795 69.3258 25.7376C69.1929 25.8236 69.1147 25.8392 68.5127 25.9799L68.6769 26.6836L72.3282 25.8392L72.1561 25.1199L71.7105 25.2215C71.4759 25.2763 71.2336 25.3232 70.9834 25.1277C70.7645 24.9713 70.7097 24.7368 70.6706 24.5257L69.8966 21.1637C69.6777 20.2802 69.6308 20.0691 69.2868 18.826C70.0842 20.1317 70.3501 20.5382 71.3665 22.0003L73.8684 25.4874L74.8223 25.2606L75.6901 19.8658C75.8543 18.7869 75.8856 18.5132 76.0263 17.2545C76.1749 18.2083 76.2296 18.4194 76.425 19.3264L77.2929 23.0949C77.4102 23.5875 77.3476 23.9237 76.7065 24.0722L76.1436 24.2051L76.3156 24.9244L80.9129 23.8611L80.7487 23.1574L80.2405 23.2747C79.5837 23.4076 79.3883 23.1653 79.2475 22.5554L77.848 16.4726C77.676 15.6282 78.0435 15.5344 78.927 15.3311L78.7628 14.6274L75.3226 15.4249L74.4939 21.0777C74.3844 21.8596 74.361 22.1019 74.2671 22.9151C73.5166 21.6954 73.3055 21.3748 72.4611 20.1708L70.0295 16.6368L66.5581 17.4343L66.7223 18.138L66.7066 18.1223L66.6988 18.138ZM81.3585 15.1278H81.9058C82.5548 15.12 82.6642 15.3155 82.6721 15.8862L82.7893 22.4772C82.7737 22.9776 82.586 23.1105 82.1404 23.1653H81.4915L81.4993 23.8924L86.5422 23.8064C87.2928 23.7673 88.0747 23.7282 88.7471 23.1731C89.4116 22.6101 89.5914 21.7736 89.5836 21.1403C89.5602 19.9519 88.8565 18.8416 87.0113 18.654C87.9105 18.4507 89.0051 17.8565 88.9738 16.457C88.966 15.7064 88.5985 14.9793 87.9496 14.604C87.4961 14.3303 87.0426 14.3225 86.55 14.3069L81.3351 14.4007V15.1435H81.3585V15.1278ZM85.1662 15.0496C86.1357 15.0575 86.9175 15.1435 86.941 16.6368C86.9566 17.5203 86.6673 17.919 86.5735 18.0285C86.2842 18.3725 85.8855 18.4038 85.5493 18.4194L84.7518 18.4351L84.6892 15.0653H85.1662V15.0575V15.0496ZM84.7518 19.1465L85.6822 19.1309C85.9949 19.1309 86.3937 19.1465 86.7924 19.4749C87.3632 19.9675 87.3944 20.7572 87.3944 21.0934C87.4179 22.2349 87.0739 22.6962 86.6595 22.9229C86.3624 23.0949 86.0731 23.0949 85.7213 23.1027C84.8456 23.1184 84.8143 22.6649 84.7987 22.1254L84.744 19.1544L84.7518 19.1465ZM91.6243 14.2052L91.5383 14.9089C91.7963 14.9245 92.1559 14.9715 92.2967 15.0184C92.8361 15.1513 92.797 15.5813 92.7736 15.8237L91.9995 22.1645C91.8588 23.0949 91.4835 23.048 90.5609 22.9385L90.4749 23.6344L98.614 24.6351L99.1613 21.6954L98.4577 21.6094C98.3404 22.0316 98.1449 22.7118 97.6367 23.2122C97.1598 23.6969 96.7689 23.6657 96.2607 23.6109L94.6735 23.4155C93.9855 23.2982 93.9464 23.0558 94.0011 22.5632L94.392 19.3889L95.2208 19.4906C95.4632 19.514 95.8541 19.5844 96.0496 20.0379C96.1512 20.3115 96.1277 20.6321 96.073 21.0152L96.8158 21.109L97.238 17.7158L96.4952 17.6219C96.4483 17.919 96.3936 18.2552 96.1512 18.5132C95.8854 18.8103 95.6195 18.7713 95.3068 18.7478L94.478 18.6462L94.8846 15.3076L96.9409 15.5578C97.3787 15.6204 98.2856 15.7455 98.2856 17.4968L98.9893 17.5828L99.1301 15.12L91.6164 14.1974L91.6243 14.2052ZM101.178 16.2459C101.984 16.5195 102.078 16.543 102.211 16.6993C102.398 16.9183 102.328 17.145 102.273 17.3405L100.576 23.6813C100.545 23.8142 100.483 24.0175 100.334 24.1348C100.123 24.299 99.8806 24.2364 99.091 24.0566L98.9111 24.729L103.469 25.9565L103.657 25.2528C102.875 25.0104 102.586 24.9401 102.523 24.5491C102.5 24.3928 102.555 24.166 102.625 23.9315L103.289 21.453C104.259 21.6719 104.447 21.7501 105.135 24.0722C105.565 25.5812 105.627 25.8314 106.112 26.6601L108.59 27.3247L108.755 26.7149C108.106 26.4881 107.981 26.3318 107.699 25.4561C106.737 22.4929 106.55 22.227 105.158 21.6954C105.799 21.8439 106.651 22.0081 107.504 21.4765C108.192 21.0464 108.45 20.4366 108.567 19.9831C108.684 19.5453 108.77 18.8494 108.372 18.1145C107.942 17.3326 107.183 17.1294 106.503 16.9339L101.374 15.5578L101.186 16.2459H101.178ZM104.439 17.1606C105.752 17.4968 106.089 17.5907 106.378 17.9816C106.714 18.4351 106.675 19.0449 106.526 19.5922C106.354 20.2411 105.979 20.851 105.338 21.0074C104.892 21.109 104.525 21.0074 103.477 20.7337L104.431 17.1606H104.439ZM110.146 22.9229C109.138 25.1824 109.951 27.1371 110.811 28.1769C111.382 28.8728 112.054 29.3184 112.789 29.6546C114.228 30.2958 115.322 30.2801 116.323 30.0221C116.925 29.8657 117.496 29.5999 117.996 29.2403C118.841 28.6226 119.419 27.7626 119.732 27.0667C120.795 24.6742 120.013 21.7267 117.058 20.4131C114.173 19.1309 111.96 20.5148 111.061 21.5234C110.631 22.0003 110.35 22.5007 110.154 22.9307L110.146 22.9229ZM116.706 21.1325C117.629 21.539 118.02 22.2036 118.184 22.6727C118.403 23.3451 118.387 24.557 117.691 26.1363C117.269 27.0823 116.612 28.0909 115.971 28.6148C115.486 28.9979 114.9 29.2715 114.032 29.123C113.766 29.0917 113.5 29.0057 113.25 28.8962C110.991 27.8877 111.429 25.5812 112.218 23.8142C112.695 22.7352 113.313 21.8518 113.97 21.3748C114.587 20.9135 115.189 20.8119 115.799 20.8979C116.128 20.9448 116.432 21.0308 116.698 21.1559L116.706 21.1325ZM119.419 29.3497C118.856 30.2723 118.731 30.4443 117.636 31.9767L118.207 32.3286L118.841 31.8751C118.942 32.2895 119.208 33.2668 120.514 34.0799C121.217 34.5178 121.984 34.6976 122.562 34.6585C123.5 34.5959 124.392 34.0408 124.908 33.2042C125.791 31.7891 125.181 30.585 124.697 29.7406C124.478 29.3575 124.228 28.9901 123.993 28.607C123.461 27.786 122.969 26.9182 123.375 26.2692C123.532 26.019 123.852 25.7376 124.314 25.7454C124.618 25.761 124.916 25.8939 125.142 26.0425C125.736 26.41 126.206 27.0042 126.346 27.5593C126.503 28.1222 126.331 28.6773 126.19 29.1621L126.659 29.4592L128.184 27.1214L127.644 26.7852L127.152 27.1605C127.003 26.7931 126.628 25.9408 125.533 25.2606C124.204 24.4319 122.492 24.5179 121.593 25.9565C120.717 27.3638 121.421 28.4975 122.015 29.4514C122.234 29.7954 122.429 30.1394 122.64 30.4834C123.086 31.1871 123.367 31.6562 123.344 32.1957C123.344 32.5084 123.227 32.743 123.149 32.8681C122.781 33.4623 121.89 33.861 120.912 33.2512C119.974 32.6726 119.771 31.8125 119.708 31.4998C119.56 30.757 119.708 30.2567 119.896 29.6468L119.419 29.3497ZM50.1079 78.5282C51.265 78.9113 51.4918 79.0051 53.4777 79.8339L53.7279 79.1068L53.0711 78.5282C53.5011 78.3015 54.5175 77.7698 55.0805 76.1201C55.3932 75.221 55.3854 74.3375 55.1978 73.7042C54.885 72.6721 54.0484 71.8356 52.9929 71.4759C51.2025 70.8582 50.0219 71.8434 49.2166 72.594C48.8413 72.9302 48.5051 73.2976 48.1376 73.6573C47.3636 74.4548 46.5348 75.221 45.7061 74.9395C45.3933 74.8301 45.0024 74.5564 44.8929 74.0247C44.8304 73.6807 44.9086 73.3211 45.0102 73.0318C45.2682 72.2812 45.8077 71.6088 46.3785 71.3039C46.957 70.9912 47.6216 71.0381 48.1924 71.0694L48.3956 70.4751L45.4246 69.3884L45.1901 70.0686L45.7374 70.5142C45.3699 70.7722 44.5255 71.4055 44.0485 72.7972C43.47 74.486 44.0016 76.3547 45.8234 76.9802C47.5982 77.5978 48.6771 76.5267 49.5841 75.6275C49.9046 75.2992 50.233 74.9942 50.5536 74.6737C51.226 74.0013 51.6638 73.5713 52.2658 73.454C52.6176 73.3758 52.8991 73.4462 53.0633 73.5009C53.8139 73.7589 54.4863 74.6346 54.0563 75.8777C53.6497 77.0662 52.7506 77.5118 52.4222 77.6604C51.6325 78.02 51.054 77.9809 50.3268 77.9262L50.1235 78.536L50.1079 78.5282ZM50.1861 61.3744L55.2056 69.6464C55.7372 70.5846 55.7685 70.9443 55.1587 71.7887L55.792 72.2421L58.2157 68.9036L57.5746 68.4345L57.1602 69.0053C56.9726 69.2476 56.738 69.3806 56.4878 69.2007C56.3784 69.1225 56.2611 68.9584 56.1751 68.8489L55.0649 67.1523L56.9647 64.5331L58.9741 65.1273C59.0914 65.1507 59.1774 65.182 59.2712 65.2445C59.4667 65.3853 59.4823 65.6042 59.4432 65.7293C59.4198 65.9013 59.3729 65.956 58.9585 66.5268L59.5996 66.9959L62.6723 62.7661L62.0311 62.297C61.3822 63.1648 61.2258 63.2977 60.0922 63.0241L50.8116 60.5065L50.1783 61.3744H50.1861ZM56.1985 64.3063L54.627 66.4721L53.1884 64.2672C52.7662 63.6261 52.6333 63.4463 52.1642 62.8599C53.0086 63.2821 53.462 63.4619 54.4941 63.7825L56.1985 64.2985V64.3063ZM57.0038 54.3064L57.5277 53.939C57.9108 53.6888 58.2939 53.5168 58.6536 54.0797L62.8052 60.014C63.0554 60.3971 63.2039 60.6473 63.1179 60.9678C63.0397 61.2258 62.8756 61.3431 62.2188 61.82L62.6957 62.4924L66.2219 60.0218L65.7293 59.3181C64.8458 59.9358 64.4862 60.186 63.9545 59.4198L60.874 55.0101C60.53 54.5175 60.4753 54.4315 60.0452 53.9077L69.8966 57.4338L71.2648 56.48L66.2923 49.3808C65.9795 48.9038 65.7293 48.5286 65.9951 48.0751C66.0968 47.9031 66.2766 47.7858 66.7379 47.4574L66.2766 46.7928L62.7739 49.2479L63.2352 49.9124C63.8529 49.4824 64.0718 49.326 64.3611 49.3339C64.7442 49.326 64.9318 49.5919 65.4088 50.2643L67.4728 53.2197C68.0905 54.0953 68.2469 54.2986 68.8254 54.9397C67.4572 54.2361 67.0663 54.0797 65.2758 53.4151L59.67 51.4292L56.5269 53.6262L56.9882 54.2908L57.0038 54.3064ZM75.0724 44.5646C76.2061 44.3065 76.5032 44.2518 76.7222 44.9633L78.4188 52.3205C78.5986 53.1728 78.2311 53.2588 77.1053 53.5168L77.2929 54.3064L82.5313 53.1024L82.3515 52.3284C81.1318 52.6098 80.8425 52.5942 80.6314 51.6716L79.0364 44.7444C78.8253 43.7593 79.099 43.6811 80.2874 43.3761L80.1076 42.5865L74.9004 43.7905L75.0803 44.5646H75.0724ZM84.0716 49.2713C84.0716 50.4988 84.0481 50.7412 83.8683 52.8756H84.6267L84.9785 52.0782C85.3304 52.4222 86.1513 53.2118 87.8948 53.2509C88.8409 53.2666 89.6931 52.9929 90.2248 52.6176C91.1082 52.0078 91.6477 50.9445 91.6634 49.8342C91.6946 47.9422 90.3968 47.1212 89.4273 46.5896C88.9894 46.3394 88.5359 46.1361 88.0825 45.8937C87.0817 45.4011 86.0966 44.846 86.1122 43.9782C86.1122 43.642 86.2608 43.1807 86.7299 42.9149C87.0426 42.7507 87.4023 42.7116 87.715 42.7194C88.5125 42.735 89.31 43.0399 89.7791 43.4856C90.256 43.9391 90.4124 44.588 90.5609 45.1353H91.1864L91.3037 41.9844H90.5844L90.3264 42.6256C89.9589 42.3597 89.1067 41.7499 87.6368 41.7186C85.8464 41.6873 84.2436 42.7741 84.2045 44.6975C84.1732 46.5817 85.518 47.2776 86.6595 47.8562C87.0661 48.0594 87.4648 48.2862 87.8714 48.4895C88.7158 48.9195 89.2631 49.2009 89.5602 49.7404C89.74 50.0532 89.7635 50.3424 89.7635 50.5066C89.7478 51.3041 89.1223 52.2111 87.8088 52.1798C86.5579 52.1563 85.8542 51.4449 85.6118 51.179C85.0254 50.5457 84.8847 49.975 84.7127 49.2713H84.0716ZM94.7908 43.4231C95.9245 43.6811 96.2137 43.7671 96.0886 44.502L94.392 51.8592C94.1809 52.7036 93.8134 52.6176 92.6954 52.3596L92.5078 53.1493L97.7462 54.3533L97.926 53.5793C96.7063 53.2978 96.4561 53.1571 96.6672 52.2345L98.2622 45.3073C98.5046 44.33 98.786 44.3769 99.9823 44.6193L100.17 43.8296L94.9628 42.6256L94.783 43.3996L94.7908 43.4231ZM103.508 45.4324C104.478 45.9719 104.806 46.183 104.337 47.0508L101.077 52.9304C100.475 53.9781 100.264 54.0484 99.0831 53.3839L98.6766 54.1188L104.204 57.1837C105.338 57.7622 106.472 58.3173 108.106 57.7935C108.708 57.598 109.49 57.2149 110.225 56.4565C110.647 56.0421 110.983 55.5496 111.272 55.0336C112.242 53.2822 112.117 51.8045 111.929 51.0148C111.46 49.0211 109.974 48.0203 108.653 47.2854C108.442 47.1681 107.816 46.8397 107.207 46.5192C106.597 46.1986 106.003 45.8468 105.807 45.7373C105.174 45.3855 104.533 45.0493 103.907 44.6897L103.493 45.4402L103.508 45.4324ZM107.723 47.7545C108.465 48.1845 109.56 48.8257 109.857 50.3581C109.974 50.9132 109.943 51.523 109.724 52.2658C109.576 52.8131 109.349 53.3135 109.075 53.8139C108.106 55.5652 106.956 56.2533 106.464 56.4409C105.346 56.8475 104.29 56.3236 103.751 56.0422C102.805 55.5105 102.453 55.3228 102.82 54.6035L106.863 47.301L107.707 47.7702L107.723 47.7545ZM116.526 53.3448C117.152 54.0797 117.222 54.1579 117.269 54.3924C117.332 54.7208 117.12 54.9006 116.956 55.057L111.593 60.2407C111.483 60.3502 111.303 60.5143 111.092 60.5378C110.787 60.5769 110.584 60.3658 109.927 59.7247L109.357 60.2798L113.078 64.1343L113.672 63.5636C113.047 62.8755 112.812 62.6253 112.984 62.211C113.047 62.039 113.242 61.8591 113.438 61.6637L115.533 59.6308C116.346 60.4127 116.487 60.6003 115.791 63.2665C115.33 64.9865 115.236 65.268 115.228 66.3548L117.253 68.458L117.769 67.9576C117.277 67.3556 117.246 67.1288 117.472 66.1124C118.27 62.6644 118.239 62.2892 117.199 60.96C117.746 61.476 118.465 62.1406 119.607 62.1171C120.529 62.1015 121.131 61.6637 121.522 61.2884C121.89 60.9287 122.39 60.3032 122.421 59.3494C122.461 58.333 121.843 57.6919 121.296 57.1055L117.105 52.7662L116.526 53.3291V53.3448ZM119.169 56.1438C120.248 57.2462 120.529 57.5277 120.568 58.0828C120.631 58.7161 120.24 59.2947 119.771 59.7403C119.224 60.272 118.504 60.6473 117.785 60.4283C117.292 60.272 116.995 59.9592 116.135 59.0679L119.161 56.1438H119.169ZM121.686 66.3626C119.138 67.551 118.379 69.8262 118.34 71.3665C118.309 72.3985 118.551 73.2742 118.942 74.1108C119.701 75.7292 120.647 76.5345 121.702 77.0583C122.335 77.3711 123.023 77.5744 123.727 77.6369C124.916 77.7386 126.041 77.4336 126.831 77.0662C129.528 75.8074 131.053 72.7034 129.497 69.3649C127.98 66.1124 125.056 65.6511 123.524 65.8466C122.805 65.9248 122.179 66.1515 121.694 66.3782L121.686 66.3626ZM128.645 69.7089C129.13 70.7488 128.973 71.6166 128.762 72.1327C128.45 72.8676 127.535 73.9075 125.76 74.7362C124.697 75.2288 123.383 75.6041 122.445 75.5728C121.741 75.5494 121.038 75.3383 120.404 74.5642C120.201 74.3375 120.037 74.0639 119.904 73.7824C118.715 71.2335 120.811 69.5838 122.805 68.6534C124.024 68.0905 125.197 67.7856 126.127 67.8638C127.003 67.9263 127.589 68.2938 128.059 68.8176C128.309 69.1069 128.496 69.404 128.637 69.7089H128.645ZM87.3944 88.3014C90.2795 88.3014 92.6329 89.224 92.6329 90.3655C92.6329 90.7251 92.3983 91.0535 91.9917 91.3506C95.0331 92.9925 97.1129 96.2215 97.1129 99.9119C97.1129 105.268 92.7501 109.638 87.3944 109.638C82.0387 109.638 77.676 105.268 77.676 99.9119C77.676 96.2137 79.7558 93.0003 82.7972 91.3506C82.3906 91.0535 82.156 90.7173 82.156 90.3655C82.156 89.2318 84.5094 88.3014 87.3944 88.3014Z" fill="#F8C11A"/>
<path fill-rule="evenodd" clip-rule="evenodd" d="M145.947 103.563H148.864L150.31 66.261H149.677V63.9311H150.912L151.577 59.5136H153.117L153.719 63.9311H155.173V66.261H154.344L155.885 103.563H158.527V105.705H159.552V107.566H158.527V110.092H145.947V107.566H144.829V105.705H145.947V103.563Z" fill="#FEFEFE"/>
<path fill-rule="evenodd" clip-rule="evenodd" d="M84.9473 110.451C85.5727 110.451 86.0106 110.53 86.6361 110.748C86.3311 112.633 86.3937 114.697 86.6908 116.479C85.9637 116.581 85.3773 116.831 85.0802 117.152C84.8534 115.299 84.6892 112.531 84.9473 110.451ZM89.8964 110.451C89.2787 110.451 88.8487 110.53 88.2388 110.748C88.536 112.633 88.4812 114.697 88.1919 116.479C88.8956 116.581 89.4742 116.816 89.7713 117.128C89.998 115.275 90.1544 112.531 89.8964 110.451ZM85.3382 118.966C84.7909 119.873 84.0481 120.748 82.9535 121.21C80.0372 122.437 76.1201 121.491 73.3055 122.93C70.8192 124.204 68.372 125.799 67.4572 129.403C68.5518 128.786 70.3579 128.145 71.2023 127.754C72.1249 126.526 72.938 126.034 74.0639 125.486C76.1123 124.478 77.9731 123.743 80.092 122.875C81.3664 122.343 83.063 122.328 84.1889 121.507C84.9629 120.944 85.4555 120.076 85.9949 119.263C85.7369 119.185 85.518 119.075 85.346 118.966H85.3382ZM86.7924 119.92C86.6595 120.772 86.5657 121.632 86.0497 122.281C85.1036 123.469 83.6259 124.095 82.3046 124.83C81.1318 125.486 79.7167 125.658 78.6221 126.432C77.2616 127.386 75.909 128.497 75.0568 129.935C74.3141 131.194 74.3532 132.789 74.0013 134.212C73.4931 133.321 73.0787 132.719 72.8285 131.718C72.6253 130.866 72.6409 130.17 72.8285 129.224C73.5009 128.567 74.2828 127.457 75.2288 126.784C76.3156 126.01 77.5275 125.181 78.7393 124.65C79.9434 124.118 81.2804 124.196 82.4844 123.641C83.321 123.258 84.1185 122.578 84.8222 121.976C85.2678 121.593 85.7213 121.077 85.9949 120.553C86.1904 120.185 86.3077 119.771 86.4328 119.372C86.5422 119.396 86.6517 119.411 86.7612 119.427C86.7612 119.427 86.8237 119.427 86.8628 119.435H86.8706C87.0583 119.458 87.2381 119.458 87.4335 119.458C87.7306 119.458 88.0121 119.435 88.2701 119.396C88.6376 119.818 88.9972 120.264 89.4351 120.6C90.0762 121.108 90.8502 121.413 91.5383 121.843C92.2498 122.281 92.9769 122.711 93.6414 123.211C94.4702 123.837 95.2833 124.509 96.0417 125.228C96.7141 125.877 97.2458 126.651 97.9104 127.308C98.5358 127.926 99.2395 128.457 99.9041 129.028C100.037 129.56 100.334 130.076 100.311 130.631C100.287 131.327 100.107 132.038 99.7868 132.648C99.4819 133.227 98.9268 133.641 98.4968 134.134C97.8322 132.492 97.324 130.78 96.503 129.208C95.8072 127.855 94.9628 126.565 93.9933 125.408C93.2192 124.486 92.2498 123.751 91.3037 123.031C90.5297 122.445 89.6462 122.038 88.8487 121.483C88.1372 120.991 87.4726 120.428 86.7846 119.896L86.8002 119.912L86.7924 119.92ZM89.6931 118.848C90.1935 119.106 90.686 119.372 91.1943 119.607C91.6712 119.834 92.1481 120.06 92.6563 120.201C94.0871 120.608 95.5804 120.78 96.9878 121.264C98.0902 121.647 99.177 122.14 100.146 122.812C101.03 123.43 101.796 124.228 102.484 125.072C103.133 125.869 103.626 126.784 104.118 127.683C104.486 128.348 104.767 129.059 105.056 129.763C105.314 130.404 105.526 131.069 105.76 131.726C105.268 131.389 104.767 131.069 104.298 130.717C103.462 130.084 102.664 129.411 101.843 128.755C101.515 128.262 101.171 127.777 100.85 127.269C100.506 126.722 100.287 126.081 99.8572 125.604C99.2239 124.9 98.4186 124.376 97.6914 123.766C97.0894 123.258 96.5812 122.586 95.8775 122.218C95.0488 121.788 94.0558 121.796 93.188 121.444C92.5234 121.178 91.9448 120.717 91.3193 120.381C90.8581 120.131 90.3655 119.927 89.9198 119.669C89.6618 119.521 89.4116 119.341 89.1693 119.169C89.3804 119.075 89.568 118.974 89.7009 118.856L89.6931 118.848ZM87.4335 116.784C88.8409 116.784 89.998 117.316 89.998 117.973C89.998 118.63 88.8487 119.161 87.4335 119.161C86.0184 119.161 84.8691 118.63 84.8691 117.973C84.8691 117.316 86.0184 116.784 87.4335 116.784Z" fill="#A2D9F7"/>
<path fill-rule="evenodd" clip-rule="evenodd" d="M73.1178 127.089C73.3289 127.574 72.7894 129.474 72.8441 129.208C73.5165 128.551 74.2984 127.441 75.2444 126.769C76.3234 125.994 77.5353 125.166 78.755 124.634C79.9668 124.102 81.296 124.181 82.5 123.625C83.3366 123.242 84.1341 122.562 84.8378 121.96C85.2834 121.577 85.7369 121.061 86.0105 120.537C86.1982 120.17 86.3233 119.755 86.4484 119.364C86.292 119.333 86.1435 119.294 86.0027 119.247C85.4632 120.06 84.9785 120.928 84.1966 121.491C83.0708 122.304 81.382 122.32 80.1076 122.859C77.9966 123.735 76.1357 124.462 74.0795 125.478C72.9614 126.034 72.1405 126.526 71.2257 127.746C72.1248 127.324 72.8207 127.199 73.1334 127.089H73.1178ZM88.2466 110.741C88.5437 112.625 88.489 114.689 88.1997 116.472C87.9574 116.44 87.7072 116.417 87.4491 116.417C87.1911 116.417 86.9331 116.44 86.6908 116.472C86.3936 114.697 86.3389 112.633 86.6438 110.741C87.0113 110.655 87.6602 110.514 88.2545 110.741H88.2466ZM88.2857 119.396C88.6532 119.818 89.0129 120.263 89.4585 120.6C90.0996 121.108 90.8658 121.413 91.5617 121.843C92.2654 122.281 93.0003 122.711 93.6649 123.211C94.5015 123.844 95.3068 124.509 96.0652 125.228C96.7376 125.869 97.2692 126.651 97.9338 127.308C98.5593 127.926 99.2629 128.457 99.9275 129.036C99.6851 127.84 99.951 127.152 100.006 127.3C100.209 127.363 100.803 127.91 101.851 128.739C101.522 128.246 101.178 127.761 100.858 127.253C100.506 126.706 100.295 126.065 99.865 125.588C99.2317 124.884 98.4264 124.36 97.6992 123.751C97.0972 123.242 96.589 122.57 95.8853 122.202C95.0566 121.772 94.0558 121.78 93.1958 121.428C92.5312 121.163 91.9526 120.701 91.3271 120.365C90.8658 120.115 90.3733 119.912 89.9276 119.654C89.6696 119.505 89.4194 119.325 89.177 119.145C88.919 119.255 88.6219 119.333 88.2936 119.388H88.2857V119.396ZM114.791 112.117L114.493 111.694C113.782 110.701 112.992 109.771 112.343 108.731C112.171 108.442 112.015 108.153 111.866 107.848C111.757 107.605 111.663 107.363 111.569 107.113C111.483 106.847 111.405 106.581 111.335 106.307C111.194 105.682 111.061 105.056 110.913 104.431C110.709 103.579 110.49 102.758 110.217 101.921C110.092 101.569 109.959 101.218 109.818 100.866L109.505 100.193C109.333 99.8806 109.161 99.5757 108.974 99.2786L108.575 98.7391L108.356 98.4967L108.129 98.27L107.887 98.0667L107.637 97.8869L107.379 97.7305L107.121 97.6054C107.285 97.9338 107.441 98.2778 107.582 98.614C107.723 98.9815 107.84 99.3489 107.934 99.732C107.996 100.006 108.043 100.279 108.082 100.561C108.121 100.889 108.145 101.218 108.16 101.554C108.168 101.953 108.168 102.351 108.16 102.742C108.137 103.219 108.106 103.688 108.059 104.165C107.981 104.869 107.895 105.565 107.793 106.268C108.231 106.753 108.544 107.347 108.802 107.941C108.895 108.176 108.974 108.411 109.044 108.645C109.114 108.911 109.177 109.177 109.224 109.443C109.271 109.74 109.294 110.037 109.318 110.334C109.325 110.662 109.318 110.983 109.31 111.311L109.232 112.015L109.091 112.758L108.872 113.532L108.755 113.884C109.505 114.157 110.279 114.329 111.077 114.415L111.655 114.447C111.96 114.447 112.25 114.439 112.554 114.4L113.149 114.29L113.446 114.212L113.735 114.11L114.016 113.993L114.29 113.852L114.564 113.688C114.845 113.485 115.127 113.266 115.361 113C115.189 112.695 115.002 112.398 114.806 112.093L114.791 112.117ZM60.272 109.052L60.6003 108.653C61.4057 107.73 62.2735 106.878 63.0163 105.909C63.2117 105.635 63.3994 105.361 63.5714 105.072C63.7043 104.838 63.8216 104.603 63.9389 104.368C64.0561 104.11 64.1578 103.852 64.2516 103.587C64.4549 102.977 64.6503 102.367 64.8458 101.757C65.1195 100.936 65.4244 100.123 65.7684 99.3333C65.9248 98.9893 66.0889 98.6531 66.261 98.3169L66.6284 97.6836C66.8239 97.3865 67.0272 97.105 67.2461 96.8157L67.6996 96.3232L67.9419 96.1043L68.1921 95.901L68.4501 95.7211L68.716 95.5648L68.9896 95.4319L69.2554 95.3302C69.0678 95.6508 68.8723 95.9635 68.6925 96.2997C68.5205 96.6515 68.3641 97.0034 68.239 97.3787C68.153 97.6523 68.0827 97.9181 68.0123 98.1918C67.9498 98.5202 67.895 98.8486 67.8403 99.1769C67.7934 99.5757 67.7621 99.9666 67.7308 100.365C67.7074 100.842 67.6996 101.311 67.6996 101.788C67.7074 102.492 67.7308 103.196 67.7699 103.899C67.293 104.345 66.9255 104.9 66.6128 105.479C66.5033 105.705 66.4017 105.932 66.3079 106.159C66.214 106.417 66.128 106.675 66.0577 106.941C65.9873 107.238 65.9326 107.519 65.8857 107.824C65.8466 108.153 65.8231 108.473 65.8075 108.802L65.8231 109.505L65.9013 110.248L66.042 111.038L66.1202 111.389C65.3462 111.593 64.5565 111.694 63.759 111.71L63.1805 111.687C62.8755 111.663 62.5862 111.616 62.2891 111.561L61.7106 111.397L61.4291 111.296L61.1555 111.171L60.8818 111.022L60.6238 110.858L60.3736 110.67C60.1156 110.436 59.8498 110.193 59.6465 109.912C59.8498 109.622 60.0609 109.341 60.2798 109.06L60.272 109.052ZM67.6136 106.245L84.8143 113.219C84.8143 113.532 84.8221 113.852 84.8378 114.157L67.293 107.042C67.0897 106.964 66.8943 106.878 67.0506 106.479C67.2148 106.081 67.4181 106.159 67.6136 106.237V106.245ZM89.9511 115.299L109.161 123.086C109.364 123.164 109.56 123.25 109.404 123.649C109.239 124.048 109.036 123.969 108.841 123.891L89.8807 116.206C89.9042 115.916 89.9276 115.611 89.9511 115.299ZM64.7911 121.155L84.8925 115.181C84.9159 115.486 84.9394 115.783 84.9629 116.065L65.0334 121.991C64.8302 122.054 64.6191 122.116 64.494 121.694C64.3767 121.28 64.58 121.217 64.7911 121.155ZM90.0293 113.657L107.683 108.411C107.887 108.348 108.098 108.286 108.223 108.7C108.34 109.114 108.137 109.177 107.926 109.239L89.9902 114.572C90.0058 114.274 90.0136 113.97 90.0214 113.657H90.0293ZM83.0395 94.3685C79.7166 98.4654 79.7714 102.82 83.2975 106.057C81.4914 102.664 81.4132 98.6922 84.1263 95.901L83.0473 94.3529L83.0395 94.3685Z" fill="#FEFEFE"/>
<path fill-rule="evenodd" clip-rule="evenodd" d="M17.8722 64.494L20.1474 71.7417L24.3147 55.2525H26.0504L25.1982 58.6457H30.6086L31.4608 55.2525H33.1965L25.0653 87.4257L30.202 103.806L28.6227 104.298L24.2912 90.4749L21.1951 102.719H19.4594L20.3116 99.3255H14.8934L14.0411 102.719H12.3054L19.3577 74.791L16.285 64.9865C15.0419 65.4947 14.0568 66.1906 13.5095 66.9099C13.4938 66.863 13.4782 66.8239 13.4626 66.777C13.0013 65.2993 14.3539 63.5479 16.4883 62.8755C18.615 62.2031 20.726 62.8755 21.1951 64.3532C21.2107 64.4001 21.2185 64.4471 21.2342 64.4862C20.382 64.2125 19.1701 64.1969 17.8644 64.494H17.88H17.8722ZM21.1013 74.7988L21.2967 75.4243H26.3553L27.3795 71.3508H21.9691L21.1013 74.7988ZM21.7737 76.9489L23.0481 81.0223H24.9402L25.9644 76.9489H21.7658H21.7737ZM23.5328 82.5391L24.1036 84.353L24.557 82.5391H23.5328ZM23.0715 86.6126L21.7971 82.5391H19.1466L18.1224 86.6126H23.0793H23.0715ZM21.3202 81.0145L20.3272 77.848L19.5297 81.0145H21.3202ZM24.7916 60.1625L23.7674 64.236H29.1778L30.202 60.1625H24.7916ZM23.3764 65.7527L22.3522 69.8262H27.7705L28.7947 65.7527H23.3764ZM17.7237 88.1372L16.6994 92.2106H22.1098L23.1341 88.1372H17.7237ZM16.3085 93.7352L15.2843 97.8087H20.6947L21.7189 93.7352H16.3085Z" fill="#FEFEFE"/>
<path fill-rule="evenodd" clip-rule="evenodd" d="M158.199 146.033C156.471 134.751 158.097 130.67 161.365 123.164C166.299 111.835 171.287 106.823 171.467 87.5039C171.295 68.1843 166.299 63.1648 161.365 51.8436C158.097 44.3378 156.463 40.2566 158.199 28.9744L155.134 25.9096L152.069 28.9744L130.17 50.8819C128.285 48.6927 126.237 46.6365 124.048 44.7522L134.04 34.7523L145.94 22.8447L149.004 19.7798L145.94 16.715C134.665 18.4429 130.592 16.8166 123.086 13.5407C111.765 8.60718 106.753 3.61114 87.4492 3.43913C68.1374 3.61114 63.1257 8.60718 51.8123 13.5407C44.3144 16.8088 40.2331 18.4429 28.9588 16.715L25.8939 19.7798L28.9588 22.8447L50.8585 44.7522C48.6693 46.6365 46.6208 48.6849 44.7366 50.8819L34.7445 40.882L22.8447 28.9744L19.7799 25.9096L16.715 28.9744C18.4429 40.2566 16.8166 44.3378 13.5485 51.8436C8.615 63.1726 3.62679 68.1843 3.44696 87.5039C3.61897 106.823 8.615 111.843 13.5485 123.164C16.8166 130.67 18.4507 134.751 16.715 146.033L19.7799 149.098L22.8447 146.033L44.7444 124.126C46.6287 126.315 48.6771 128.371 50.8663 130.256L28.9666 152.163L25.9018 155.228L28.9666 158.293C40.2409 156.565 44.3144 158.191 51.8202 161.467C63.1414 166.401 68.1531 171.397 87.457 171.569C106.769 171.397 111.78 166.401 123.094 161.467C130.592 158.199 134.673 156.565 145.947 158.293L149.012 155.228L145.947 152.163L124.048 130.256C126.237 128.371 128.285 126.323 130.17 124.126L152.069 146.041L155.134 149.106L158.199 146.041V146.033ZM87.457 35.5107C116.073 35.5107 139.419 58.8725 139.419 87.5039C139.419 116.135 116.073 139.497 87.457 139.497C58.8412 139.497 35.4873 116.135 35.4873 87.5039C35.4873 58.8725 58.8334 35.5107 87.457 35.5107ZM153.289 33.8923L132.883 54.3064C139.708 63.6261 143.75 75.1037 143.75 87.5039C143.75 99.9041 139.708 111.382 132.883 120.701L153.289 141.123C153.117 138.473 153.14 135.854 153.516 133.172C153.954 130.498 154.704 128.035 155.674 125.518C156.369 123.774 157.112 122.062 157.871 120.349C160.341 114.955 163.273 109.826 165.032 104.134C167.253 96.2919 167.472 87.9495 166.729 79.8652C166.346 76.4641 165.76 73.2429 164.743 69.9669C163.086 65.0022 160.568 60.4518 158.348 55.7294C156.62 51.9452 154.907 48.1142 153.93 44.0564C153.187 40.6318 153.062 37.3402 153.281 33.9001L153.289 33.8923ZM141.03 153.375L120.631 132.969C111.319 139.802 99.8415 143.844 87.4492 143.844C75.0568 143.844 63.5792 139.802 54.2674 132.969L33.861 153.391C36.5115 153.219 39.1229 153.25 41.8125 153.617C43.2823 153.86 44.6819 154.18 46.1126 154.595C51.6951 156.346 56.9804 159.067 62.2188 161.631C64.1734 162.57 66.1202 163.453 68.1374 164.235C77.0896 167.456 87.0348 167.745 96.4092 166.69C99.349 166.291 102.148 165.728 104.986 164.853C109.959 163.195 114.493 160.677 119.216 158.457C123 156.721 126.831 155.025 130.889 154.032C134.134 153.328 137.238 153.172 140.545 153.336C140.701 153.344 140.865 153.359 141.022 153.367L141.03 153.375ZM21.6328 141.116L42.0314 120.709C35.198 111.389 31.1636 99.9119 31.1636 87.5117C31.1636 75.1115 35.2058 63.6339 42.0314 54.3143L21.625 33.8923C21.797 36.5428 21.7658 39.162 21.3983 41.8437C21.1559 43.3136 20.8354 44.7131 20.421 46.1439C18.6696 51.7341 15.9488 57.0116 13.3843 62.2579C12.4461 64.2125 11.5548 66.1593 10.7886 68.1843C7.57514 77.1522 7.27804 87.0895 8.33354 96.4717C8.73228 99.4193 9.29522 102.211 10.1709 105.049C11.8284 110.021 14.346 114.564 16.5664 119.286C18.3022 123.07 20.0066 126.901 20.9839 130.959C21.6876 134.204 21.8439 137.308 21.6798 140.623C21.6719 140.779 21.6563 140.943 21.6485 141.1H21.6407L21.6328 141.116ZM33.8767 21.6407L54.283 42.0548C63.5949 35.2214 75.0725 31.1793 87.4648 31.1793C99.8572 31.1793 111.335 35.2214 120.647 42.0548L141.053 21.6328C138.41 21.8048 135.791 21.7736 133.102 21.4061C131.632 21.1637 130.232 20.8432 128.809 20.4288C123.227 18.6774 117.941 15.9566 112.703 13.3921C110.748 12.4539 108.802 11.5704 106.784 10.7885C97.8322 7.57513 87.8948 7.27803 78.5126 8.33353C75.5728 8.73227 72.7738 9.29521 69.9357 10.1709C64.9709 11.8284 60.4284 14.346 55.706 16.5664C51.9218 18.2943 48.0907 20.0066 44.0329 20.9917C40.6084 21.7345 37.3246 21.8596 33.8923 21.6485H33.8845L33.8767 21.6407ZM51.4136 140.232C52.0547 140.725 52.0782 141.178 52.086 141.921L52.1329 150.185L52.946 150.646L56.3471 146.158C57.0899 145.189 57.5433 144.603 57.8561 144.368C58.2157 144.102 58.4815 144.227 58.7787 144.368L58.9741 143.75L56.3393 142.265L56.136 142.898C56.7146 143.227 56.9726 143.375 56.8318 143.821C56.7771 143.993 56.6911 144.118 56.5816 144.259L54.0875 147.644C53.7201 148.137 53.6497 148.246 53.423 148.653C53.5011 147.965 53.509 147.793 53.5246 147.011L53.6028 142.687C53.6106 142.413 53.6184 142.187 53.6732 142.022C53.8061 141.616 54.0953 141.764 54.4706 141.976L54.6739 141.319L51.6091 139.583L51.4136 140.232ZM57.2931 148.16C56.7224 150.513 57.4808 152.374 58.2001 153.32C58.6848 153.954 59.2165 154.329 59.7951 154.579C60.9209 155.064 61.734 154.939 62.4612 154.579C62.899 154.352 63.3056 154.04 63.6496 153.625C64.236 152.921 64.5956 152.007 64.7755 151.28C65.3853 148.785 64.5722 145.94 62.2579 144.939C59.9983 143.961 58.4659 145.572 57.8639 146.674C57.5824 147.183 57.4104 147.722 57.301 148.168L57.2931 148.16ZM62.0468 145.689C62.7661 146.002 63.1101 146.62 63.2665 147.065C63.4776 147.707 63.5636 148.918 63.1648 150.56C62.9225 151.545 62.5159 152.609 62.0781 153.203C61.7497 153.641 61.3275 153.969 60.6785 153.907C60.4753 153.907 60.272 153.844 60.0765 153.758C58.3095 152.992 58.4581 150.654 58.9037 148.809C59.1774 147.683 59.5683 146.745 60.0218 146.19C60.444 145.666 60.8896 145.502 61.3509 145.517C61.6011 145.525 61.8357 145.58 62.0468 145.674V145.689ZM65.6433 147.66C65.784 147.699 65.917 147.73 66.0577 147.777C66.3783 147.886 66.5815 148.035 66.5033 148.66L65.5964 154.868C65.4479 155.736 65.2446 155.736 64.4783 155.541L64.3767 156.252L70.483 157.839L70.999 154.946L70.4673 154.806C70.2562 155.548 70.0608 156.182 69.5213 156.495C69.1538 156.713 68.8802 156.667 68.3876 156.541L67.6761 156.354C67.0741 156.182 67.0428 155.9 67.0819 155.47L67.981 149.286C68.1296 148.285 68.3563 148.34 69.1069 148.535L69.2086 147.824L65.7371 146.925L65.6355 147.652L65.6433 147.66ZM71.5619 149.536C72.422 149.708 72.3985 149.935 72.2969 151.092L71.9529 154.829C71.8747 155.791 71.7809 157.011 72.5002 158.019C73.0084 158.746 73.7824 159.122 74.5955 159.262C75.3226 159.38 76.0498 159.325 76.6987 158.864C77.7464 158.074 77.8793 156.635 77.9653 155.689L78.3093 151.991C78.3328 151.608 78.3719 151.24 78.5204 151.014C78.669 150.795 78.8175 150.787 79.3023 150.803L79.3648 150.107L76.6752 149.669L76.6127 150.396C77.1835 150.513 77.3398 150.568 77.4571 150.818C77.5666 151.068 77.5431 151.28 77.4571 152.296L77.16 155.556C77.0584 156.557 76.9333 157.659 76.0185 158.09C75.6979 158.238 75.3305 158.277 75.0021 158.222C74.3844 158.121 73.7746 157.745 73.5322 157.003C73.3446 156.44 73.4071 155.83 73.4462 155.4L73.8137 151.397C73.8919 150.623 73.9075 150.474 74.0482 150.271C74.1811 150.076 74.314 150.044 74.9317 150.099L74.9943 149.395L71.6245 148.848L71.5619 149.552H71.5541L71.5619 149.536ZM79.4977 150.959L79.9199 150.982C80.2249 151.014 80.4907 151.1 80.4438 151.694L80.1936 158.058C80.1701 158.457 80.1467 158.715 79.9668 158.887C79.8183 159.02 79.6932 159.02 79.1537 158.989L79.1303 159.716L81.9762 159.919L81.9997 159.168C81.2804 159.122 80.9989 159.098 81.0302 158.285L81.2178 153.555C81.2413 153.031 81.2413 152.937 81.2335 152.343L84.9316 160.13L86.0262 160.208L86.3233 152.593C86.3468 152.101 86.378 151.694 86.6986 151.53C86.8237 151.467 86.9644 151.483 87.3319 151.506L87.3554 150.795L84.5329 150.599L84.5094 151.311C85.002 151.342 85.1818 151.358 85.3304 151.514C85.5336 151.717 85.5258 151.999 85.4945 152.718L85.3694 155.893C85.3304 156.831 85.3304 157.065 85.3694 157.816C84.9394 156.588 84.8065 156.268 84.1419 154.837L82.0309 150.42L79.5056 150.248L79.4821 150.959H79.4977ZM87.5586 153.719H88.0825C88.1607 152.976 88.2623 151.991 88.9269 151.6C89.1771 151.459 89.4116 151.444 89.6227 151.436H90.0762L90.1778 158.699C90.1544 159.466 89.8964 159.473 89.1536 159.489V160.216L92.7579 160.138V159.411C92.0386 159.426 91.7259 159.419 91.7181 158.684L91.6164 151.389H91.9448C92.3827 151.389 92.8752 151.381 93.2662 152.077C93.5633 152.609 93.6258 153.14 93.6649 153.57H94.1887L94.0402 150.607L87.629 150.756L87.5508 153.719H87.5586ZM96.7298 149.974L94.7751 158.09C94.5406 158.981 94.3764 159.215 93.6884 159.294L93.7353 159.982L96.4483 159.669L96.4014 158.973L95.9401 159.028C95.7368 159.036 95.5726 158.965 95.557 158.699C95.557 158.582 95.5804 158.41 95.6039 158.293L95.9714 156.573L98.1058 156.323L98.6844 157.996C98.7235 158.09 98.7469 158.168 98.7548 158.254C98.7704 158.465 98.6687 158.606 98.5827 158.652C98.4811 158.731 98.4342 158.731 97.9729 158.785L98.0198 159.481L101.46 159.082L101.413 158.387C100.694 158.457 100.569 158.434 100.209 157.519L97.4334 149.904L96.7298 149.982V149.974ZM97.8713 155.666L96.1121 155.869L96.589 153.641C96.7298 152.984 96.761 152.796 96.847 152.147C96.9956 152.953 97.105 153.359 97.4022 154.235L97.8791 155.666H97.8713ZM100.6 150.083C101.233 150.005 101.304 149.99 101.444 150.083C101.64 150.201 101.663 150.443 101.687 150.646L102.461 157.136C102.476 157.269 102.508 157.48 102.429 157.644C102.336 157.886 102.148 157.917 101.546 158.074L101.624 158.762L105.127 158.019L105.041 157.3C104.431 157.401 104.212 157.448 104.048 157.112C103.985 156.979 103.954 156.753 103.923 156.51L103.618 153.977C104.353 153.782 104.501 153.774 105.682 155.627C106.44 156.831 106.558 157.034 107.144 157.589L109.044 157.19L108.966 156.565C108.45 156.62 108.317 156.526 107.856 155.846C106.292 153.531 106.081 153.359 104.963 153.445C105.447 153.312 106.081 153.133 106.503 152.288C106.839 151.616 106.831 150.959 106.777 150.49C106.722 150.036 106.573 149.364 106.073 148.864C105.541 148.324 104.955 148.441 104.431 148.543L100.49 149.372L100.569 150.076H100.584L100.6 150.083ZM103.117 149.591C104.126 149.364 104.384 149.309 104.697 149.552C105.064 149.825 105.228 150.404 105.299 150.959C105.377 151.624 105.307 152.327 104.916 152.734C104.642 153.007 104.361 153.07 103.555 153.242L103.117 149.591ZM107.723 148.324C108.465 148.082 108.661 148.027 108.817 148.653L110.021 155.103C110.154 155.846 109.904 155.932 109.177 156.174L109.31 156.862L112.758 155.713L112.633 155.032C111.827 155.298 111.64 155.29 111.491 154.485L110.357 148.418C110.209 147.55 110.389 147.48 111.171 147.19L111.038 146.502L107.605 147.636L107.73 148.316L107.723 148.324ZM112.468 150.975C113.047 153.328 114.478 154.243 115.479 154.438C116.151 154.571 116.745 154.462 117.324 154.212C118.45 153.727 119.052 152.984 119.474 152.116C119.732 151.592 119.919 151.014 120.013 150.412C120.178 149.38 120.068 148.363 119.888 147.636C119.278 145.142 117.363 143.477 115.056 144.477C112.797 145.455 112.265 147.965 112.265 149.317C112.265 149.95 112.359 150.521 112.468 150.975ZM115.228 145.259C115.948 144.947 116.503 145.173 116.823 145.416C117.277 145.768 117.887 146.682 118.285 148.324C118.528 149.309 118.669 150.498 118.567 151.311C118.489 151.929 118.301 152.515 117.746 152.984C117.582 153.14 117.386 153.25 117.199 153.336C115.432 154.102 114.517 152.093 114.063 150.248C113.79 149.122 113.688 148.058 113.813 147.261C113.931 146.502 114.212 146.026 114.595 145.674C114.798 145.486 115.017 145.353 115.228 145.259ZM121.139 148.527C121.468 149.513 121.522 149.716 121.984 151.499L122.445 151.24V150.466C122.742 150.615 123.453 150.959 124.509 150.365C125.088 150.036 125.518 149.513 125.752 149.02C126.12 148.215 126.159 147.167 125.869 146.26C125.377 144.728 124.376 144.532 123.649 144.446C123.321 144.399 122.984 144.399 122.648 144.368C121.913 144.329 121.17 144.235 120.944 143.539C120.858 143.266 120.826 142.851 121.03 142.468C121.17 142.226 121.382 142.069 121.569 141.96C122.054 141.686 122.617 141.647 123.023 141.843C123.438 142.03 123.704 142.499 123.938 142.89L124.321 142.671L123.547 140.083L123.109 140.326L123.133 140.943C122.844 140.865 122.163 140.678 121.264 141.186C120.178 141.804 119.497 143.25 119.998 144.806C120.482 146.33 121.483 146.409 122.328 146.471C122.633 146.495 122.93 146.526 123.227 146.549C123.852 146.588 124.259 146.628 124.579 146.948C124.767 147.136 124.861 147.355 124.908 147.495C125.111 148.137 124.978 149.09 124.181 149.544C123.422 149.974 122.797 149.653 122.586 149.528C122.062 149.223 121.827 148.825 121.53 148.316L121.139 148.543V148.527ZM47.3323 28.2004L47.8014 27.9033C48.3566 27.5749 48.552 27.6844 48.8491 28.1613L52.344 33.7515C52.5864 34.1894 52.4926 34.4083 52.1407 34.6741L51.5934 35.0181L51.9687 35.6202L56.2454 32.9462C56.8709 32.524 57.5199 32.0862 57.8092 31.2731C58.0828 30.4521 57.8092 29.639 57.4808 29.0995C56.8553 28.0909 55.6747 27.4967 54.0015 28.2942C54.6661 27.6609 55.2994 26.582 54.5566 25.3935C54.1579 24.7602 53.4777 24.3224 52.7271 24.3302C52.2033 24.3302 51.8045 24.557 51.3745 24.7993L46.9492 27.5671L47.3401 28.1926L47.3323 28.2004ZM50.5536 26.1676C51.3901 25.675 52.1016 25.3466 52.8913 26.6054C53.3682 27.356 53.3135 27.8486 53.29 27.9893C53.2197 28.4271 52.8913 28.6695 52.6098 28.8571L51.9374 29.2793L50.147 26.4178L50.5457 26.1676H50.5536ZM52.3049 29.897L53.0946 29.4044C53.3604 29.2559 53.7122 29.0526 54.2205 29.1308C54.9632 29.2559 55.3932 29.9205 55.5731 30.2019C56.1751 31.1714 56.1204 31.7422 55.8858 32.1487C55.7216 32.4458 55.4636 32.6022 55.1743 32.782C54.4316 33.2433 54.1657 32.8759 53.8842 32.4146L52.3049 29.897ZM57.5902 26.4256C58.5988 28.6851 60.5847 29.3888 61.9373 29.4514C62.8365 29.4983 63.6183 29.295 64.3532 28.9666C65.7919 28.3255 66.5112 27.5045 66.9881 26.582C67.2696 26.0268 67.465 25.4248 67.5276 24.815C67.637 23.7673 67.3868 22.7743 67.0741 22.0707C66.0108 19.6782 63.2978 18.2865 60.3424 19.6078C57.4573 20.8901 57.0117 23.4624 57.1524 24.8072C57.2149 25.4405 57.4026 25.9956 57.5902 26.4256ZM60.6395 20.3506C61.562 19.944 62.3204 20.0926 62.7739 20.288C63.415 20.5773 64.3142 21.3983 65.0178 22.9698C65.44 23.9158 65.745 25.073 65.7059 25.9017C65.6746 26.5194 65.4791 27.1371 64.7911 27.6844C64.5878 27.8642 64.3454 27.9971 64.0952 28.1144C61.8357 29.123 60.4127 27.2465 59.6231 25.4795C59.1461 24.4006 58.8959 23.3607 58.9741 22.5398C59.0445 21.7736 59.3729 21.2575 59.842 20.8588C60.1 20.6399 60.3658 20.4757 60.6395 20.3584V20.3506ZM66.6988 18.138C67.3399 17.9894 67.7621 17.8956 68.0436 18.2709C68.1452 18.4116 68.1765 18.568 68.2156 18.7243L69.5682 24.5882C69.6699 25.0417 69.7559 25.4795 69.3258 25.7376C69.1929 25.8236 69.1147 25.8392 68.5127 25.9799L68.6769 26.6836L72.3282 25.8392L72.1561 25.1199L71.7105 25.2215C71.4759 25.2763 71.2336 25.3232 70.9834 25.1277C70.7645 24.9713 70.7097 24.7368 70.6706 24.5257L69.8966 21.1637C69.6777 20.2802 69.6308 20.0691 69.2868 18.826C70.0842 20.1317 70.3501 20.5382 71.3665 22.0003L73.8684 25.4874L74.8223 25.2606L75.6901 19.8658C75.8543 18.7869 75.8856 18.5132 76.0263 17.2545C76.1749 18.2083 76.2296 18.4194 76.425 19.3264L77.2929 23.0949C77.4102 23.5875 77.3476 23.9237 76.7065 24.0722L76.1436 24.2051L76.3156 24.9244L80.9129 23.8611L80.7487 23.1574L80.2405 23.2747C79.5837 23.4076 79.3883 23.1653 79.2475 22.5554L77.848 16.4726C77.676 15.6282 78.0435 15.5344 78.927 15.3311L78.7628 14.6274L75.3226 15.4249L74.4939 21.0777C74.3844 21.8596 74.361 22.1019 74.2671 22.9151C73.5166 21.6954 73.3055 21.3748 72.4611 20.1708L70.0295 16.6368L66.5581 17.4343L66.7223 18.138L66.7066 18.1223L66.6988 18.138ZM81.3585 15.1278H81.9058C82.5548 15.12 82.6642 15.3155 82.6721 15.8862L82.7893 22.4772C82.7737 22.9776 82.586 23.1105 82.1404 23.1653H81.4915L81.4993 23.8924L86.5422 23.8064C87.2928 23.7673 88.0747 23.7282 88.7471 23.1731C89.4116 22.6101 89.5914 21.7736 89.5836 21.1403C89.5602 19.9519 88.8565 18.8416 87.0113 18.654C87.9105 18.4507 89.0051 17.8565 88.9738 16.457C88.966 15.7064 88.5985 14.9793 87.9496 14.604C87.4961 14.3303 87.0426 14.3225 86.55 14.3069L81.3351 14.4007V15.1435H81.3585V15.1278ZM85.1662 15.0496C86.1357 15.0575 86.9175 15.1435 86.941 16.6368C86.9566 17.5203 86.6673 17.919 86.5735 18.0285C86.2842 18.3725 85.8855 18.4038 85.5493 18.4194L84.7518 18.4351L84.6892 15.0653H85.1662V15.0575V15.0496ZM84.7518 19.1465L85.6822 19.1309C85.9949 19.1309 86.3937 19.1465 86.7924 19.4749C87.3632 19.9675 87.3944 20.7572 87.3944 21.0934C87.4179 22.2349 87.0739 22.6962 86.6595 22.9229C86.3624 23.0949 86.0731 23.0949 85.7213 23.1027C84.8456 23.1184 84.8143 22.6649 84.7987 22.1254L84.744 19.1544L84.7518 19.1465ZM91.6243 14.2052L91.5383 14.9089C91.7963 14.9245 92.1559 14.9715 92.2967 15.0184C92.8361 15.1513 92.797 15.5813 92.7736 15.8237L91.9995 22.1645C91.8588 23.0949 91.4835 23.048 90.5609 22.9385L90.4749 23.6344L98.614 24.6351L99.1613 21.6954L98.4577 21.6094C98.3404 22.0316 98.1449 22.7118 97.6367 23.2122C97.1598 23.6969 96.7689 23.6657 96.2607 23.6109L94.6735 23.4155C93.9855 23.2982 93.9464 23.0558 94.0011 22.5632L94.392 19.3889L95.2208 19.4906C95.4632 19.514 95.8541 19.5844 96.0496 20.0379C96.1512 20.3115 96.1277 20.6321 96.073 21.0152L96.8158 21.109L97.238 17.7158L96.4952 17.6219C96.4483 17.919 96.3936 18.2552 96.1512 18.5132C95.8854 18.8103 95.6195 18.7713 95.3068 18.7478L94.478 18.6462L94.8846 15.3076L96.9409 15.5578C97.3787 15.6204 98.2856 15.7455 98.2856 17.4968L98.9893 17.5828L99.1301 15.12L91.6164 14.1974L91.6243 14.2052ZM101.178 16.2459C101.984 16.5195 102.078 16.543 102.211 16.6993C102.398 16.9183 102.328 17.145 102.273 17.3405L100.576 23.6813C100.545 23.8142 100.483 24.0175 100.334 24.1348C100.123 24.299 99.8806 24.2364 99.091 24.0566L98.9111 24.729L103.469 25.9565L103.657 25.2528C102.875 25.0104 102.586 24.9401 102.523 24.5491C102.5 24.3928 102.555 24.166 102.625 23.9315L103.289 21.453C104.259 21.6719 104.447 21.7501 105.135 24.0722C105.565 25.5812 105.627 25.8314 106.112 26.6601L108.59 27.3247L108.755 26.7149C108.106 26.4881 107.981 26.3318 107.699 25.4561C106.737 22.4929 106.55 22.227 105.158 21.6954C105.799 21.8439 106.651 22.0081 107.504 21.4765C108.192 21.0464 108.45 20.4366 108.567 19.9831C108.684 19.5453 108.77 18.8494 108.372 18.1145C107.942 17.3326 107.183 17.1294 106.503 16.9339L101.374 15.5578L101.186 16.2459H101.178ZM104.439 17.1606C105.752 17.4968 106.089 17.5907 106.378 17.9816C106.714 18.4351 106.675 19.0449 106.526 19.5922C106.354 20.2411 105.979 20.851 105.338 21.0074C104.892 21.109 104.525 21.0074 103.477 20.7337L104.431 17.1606H104.439ZM110.146 22.9229C109.138 25.1824 109.951 27.1371 110.811 28.1769C111.382 28.8728 112.054 29.3184 112.789 29.6546C114.228 30.2958 115.322 30.2801 116.323 30.0221C116.925 29.8657 117.496 29.5999 117.996 29.2403C118.841 28.6226 119.419 27.7626 119.732 27.0667C120.795 24.6742 120.013 21.7267 117.058 20.4131C114.173 19.1309 111.96 20.5148 111.061 21.5234C110.631 22.0003 110.35 22.5007 110.154 22.9307L110.146 22.9229ZM116.706 21.1325C117.629 21.539 118.02 22.2036 118.184 22.6727C118.403 23.3451 118.387 24.557 117.691 26.1363C117.269 27.0823 116.612 28.0909 115.971 28.6148C115.486 28.9979 114.9 29.2715 114.032 29.123C113.766 29.0917 113.5 29.0057 113.25 28.8962C110.991 27.8877 111.429 25.5812 112.218 23.8142C112.695 22.7352 113.313 21.8518 113.97 21.3748C114.587 20.9135 115.189 20.8119 115.799 20.8979C116.128 20.9448 116.432 21.0308 116.698 21.1559L116.706 21.1325ZM119.419 29.3497C118.856 30.2723 118.731 30.4443 117.636 31.9767L118.207 32.3286L118.841 31.8751C118.942 32.2895 119.208 33.2668 120.514 34.0799C121.217 34.5178 121.984 34.6976 122.562 34.6585C123.5 34.5959 124.392 34.0408 124.908 33.2042C125.791 31.7891 125.181 30.585 124.697 29.7406C124.478 29.3575 124.228 28.9901 123.993 28.607C123.461 27.786 122.969 26.9182 123.375 26.2692C123.532 26.019 123.852 25.7376 124.314 25.7454C124.618 25.761 124.916 25.8939 125.142 26.0425C125.736 26.41 126.206 27.0042 126.346 27.5593C126.503 28.1222 126.331 28.6773 126.19 29.1621L126.659 29.4592L128.184 27.1214L127.644 26.7852L127.152 27.1605C127.003 26.7931 126.628 25.9408 125.533 25.2606C124.204 24.4319 122.492 24.5179 121.593 25.9565C120.717 27.3638 121.421 28.4975 122.015 29.4514C122.234 29.7954 122.429 30.1394 122.64 30.4834C123.086 31.1871 123.367 31.6562 123.344 32.1957C123.344 32.5084 123.227 32.743 123.149 32.8681C122.781 33.4623 121.89 33.861 120.912 33.2512C119.974 32.6726 119.771 31.8125 119.708 31.4998C119.56 30.757 119.708 30.2567 119.896 29.6468L119.419 29.3497ZM50.1079 78.5282C51.265 78.9113 51.4918 79.0051 53.4777 79.8339L53.7279 79.1068L53.0711 78.5282C53.5011 78.3015 54.5175 77.7698 55.0805 76.1201C55.3932 75.221 55.3854 74.3375 55.1978 73.7042C54.885 72.6721 54.0484 71.8356 52.9929 71.4759C51.2025 70.8582 50.0219 71.8434 49.2166 72.594C48.8413 72.9302 48.5051 73.2976 48.1376 73.6573C47.3636 74.4548 46.5348 75.221 45.7061 74.9395C45.3933 74.8301 45.0024 74.5564 44.8929 74.0247C44.8304 73.6807 44.9086 73.3211 45.0102 73.0318C45.2682 72.2812 45.8077 71.6088 46.3785 71.3039C46.957 70.9912 47.6216 71.0381 48.1924 71.0694L48.3956 70.4751L45.4246 69.3884L45.1901 70.0686L45.7374 70.5142C45.3699 70.7722 44.5255 71.4055 44.0485 72.7972C43.47 74.486 44.0016 76.3547 45.8234 76.9802C47.5982 77.5978 48.6771 76.5267 49.5841 75.6275C49.9046 75.2992 50.233 74.9942 50.5536 74.6737C51.226 74.0013 51.6638 73.5713 52.2658 73.454C52.6176 73.3758 52.8991 73.4462 53.0633 73.5009C53.8139 73.7589 54.4863 74.6346 54.0563 75.8777C53.6497 77.0662 52.7506 77.5118 52.4222 77.6604C51.6325 78.02 51.054 77.9809 50.3268 77.9262L50.1235 78.536L50.1079 78.5282ZM50.1861 61.3744L55.2056 69.6464C55.7372 70.5846 55.7685 70.9443 55.1587 71.7887L55.792 72.2421L58.2157 68.9036L57.5746 68.4345L57.1602 69.0053C56.9726 69.2476 56.738 69.3806 56.4878 69.2007C56.3784 69.1225 56.2611 68.9584 56.1751 68.8489L55.0649 67.1523L56.9647 64.5331L58.9741 65.1273C59.0914 65.1507 59.1774 65.182 59.2712 65.2445C59.4667 65.3853 59.4823 65.6042 59.4432 65.7293C59.4198 65.9013 59.3729 65.956 58.9585 66.5268L59.5996 66.9959L62.6723 62.7661L62.0311 62.297C61.3822 63.1648 61.2258 63.2977 60.0922 63.0241L50.8116 60.5065L50.1783 61.3744H50.1861ZM56.1985 64.3063L54.627 66.4721L53.1884 64.2672C52.7662 63.6261 52.6333 63.4463 52.1642 62.8599C53.0086 63.2821 53.462 63.4619 54.4941 63.7825L56.1985 64.2985V64.3063ZM57.0038 54.3064L57.5277 53.939C57.9108 53.6888 58.2939 53.5168 58.6536 54.0797L62.8052 60.014C63.0554 60.3971 63.2039 60.6473 63.1179 60.9678C63.0397 61.2258 62.8756 61.3431 62.2188 61.82L62.6957 62.4924L66.2219 60.0218L65.7293 59.3181C64.8458 59.9358 64.4862 60.186 63.9545 59.4198L60.874 55.0101C60.53 54.5175 60.4753 54.4315 60.0452 53.9077L69.8966 57.4338L71.2648 56.48L66.2923 49.3808C65.9795 48.9038 65.7293 48.5286 65.9951 48.0751C66.0968 47.9031 66.2766 47.7858 66.7379 47.4574L66.2766 46.7928L62.7739 49.2479L63.2352 49.9124C63.8529 49.4824 64.0718 49.326 64.3611 49.3339C64.7442 49.326 64.9318 49.5919 65.4088 50.2643L67.4728 53.2197C68.0905 54.0953 68.2469 54.2986 68.8254 54.9397C67.4572 54.2361 67.0663 54.0797 65.2758 53.4151L59.67 51.4292L56.5269 53.6262L56.9882 54.2908L57.0038 54.3064ZM75.0724 44.5646C76.2061 44.3065 76.5032 44.2518 76.7222 44.9633L78.4188 52.3205C78.5986 53.1728 78.2311 53.2588 77.1053 53.5168L77.2929 54.3064L82.5313 53.1024L82.3515 52.3284C81.1318 52.6098 80.8425 52.5942 80.6314 51.6716L79.0364 44.7444C78.8253 43.7593 79.099 43.6811 80.2874 43.3761L80.1076 42.5865L74.9004 43.7905L75.0803 44.5646H75.0724ZM84.0716 49.2713C84.0716 50.4988 84.0481 50.7412 83.8683 52.8756H84.6267L84.9785 52.0782C85.3304 52.4222 86.1513 53.2118 87.8948 53.2509C88.8409 53.2666 89.6931 52.9929 90.2248 52.6176C91.1082 52.0078 91.6477 50.9445 91.6634 49.8342C91.6946 47.9422 90.3968 47.1212 89.4273 46.5896C88.9894 46.3394 88.5359 46.1361 88.0825 45.8937C87.0817 45.4011 86.0966 44.846 86.1122 43.9782C86.1122 43.642 86.2608 43.1807 86.7299 42.9149C87.0426 42.7507 87.4023 42.7116 87.715 42.7194C88.5125 42.735 89.31 43.0399 89.7791 43.4856C90.256 43.9391 90.4124 44.588 90.5609 45.1353H91.1864L91.3037 41.9844H90.5844L90.3264 42.6256C89.9589 42.3597 89.1067 41.7499 87.6368 41.7186C85.8464 41.6873 84.2436 42.7741 84.2045 44.6975C84.1732 46.5817 85.518 47.2776 86.6595 47.8562C87.0661 48.0594 87.4648 48.2862 87.8714 48.4895C88.7158 48.9195 89.2631 49.2009 89.5602 49.7404C89.74 50.0532 89.7635 50.3424 89.7635 50.5066C89.7478 51.3041 89.1223 52.2111 87.8088 52.1798C86.5579 52.1563 85.8542 51.4449 85.6118 51.179C85.0254 50.5457 84.8847 49.975 84.7127 49.2713H84.0716ZM94.7908 43.4231C95.9245 43.6811 96.2137 43.7671 96.0886 44.502L94.392 51.8592C94.1809 52.7036 93.8134 52.6176 92.6954 52.3596L92.5078 53.1493L97.7462 54.3533L97.926 53.5793C96.7063 53.2978 96.4561 53.1571 96.6672 52.2345L98.2622 45.3073C98.5046 44.33 98.786 44.3769 99.9823 44.6193L100.17 43.8296L94.9628 42.6256L94.783 43.3996L94.7908 43.4231ZM103.508 45.4324C104.478 45.9719 104.806 46.183 104.337 47.0508L101.077 52.9304C100.475 53.9781 100.264 54.0484 99.0831 53.3839L98.6766 54.1188L104.204 57.1837C105.338 57.7622 106.472 58.3173 108.106 57.7935C108.708 57.598 109.49 57.2149 110.225 56.4565C110.647 56.0421 110.983 55.5496 111.272 55.0336C112.242 53.2822 112.117 51.8045 111.929 51.0148C111.46 49.0211 109.974 48.0203 108.653 47.2854C108.442 47.1681 107.816 46.8397 107.207 46.5192C106.597 46.1986 106.003 45.8468 105.807 45.7373C105.174 45.3855 104.533 45.0493 103.907 44.6897L103.493 45.4402L103.508 45.4324ZM107.723 47.7545C108.465 48.1845 109.56 48.8257 109.857 50.3581C109.974 50.9132 109.943 51.523 109.724 52.2658C109.576 52.8131 109.349 53.3135 109.075 53.8139C108.106 55.5652 106.956 56.2533 106.464 56.4409C105.346 56.8475 104.29 56.3236 103.751 56.0422C102.805 55.5105 102.453 55.3228 102.82 54.6035L106.863 47.301L107.707 47.7702L107.723 47.7545ZM116.526 53.3448C117.152 54.0797 117.222 54.1579 117.269 54.3924C117.332 54.7208 117.12 54.9006 116.956 55.057L111.593 60.2407C111.483 60.3502 111.303 60.5143 111.092 60.5378C110.787 60.5769 110.584 60.3658 109.927 59.7247L109.357 60.2798L113.078 64.1343L113.672 63.5636C113.047 62.8755 112.812 62.6253 112.984 62.211C113.047 62.039 113.242 61.8591 113.438 61.6637L115.533 59.6308C116.346 60.4127 116.487 60.6003 115.791 63.2665C115.33 64.9865 115.236 65.268 115.228 66.3548L117.253 68.458L117.769 67.9576C117.277 67.3556 117.246 67.1288 117.472 66.1124C118.27 62.6644 118.239 62.2892 117.199 60.96C117.746 61.476 118.465 62.1406 119.607 62.1171C120.529 62.1015 121.131 61.6637 121.522 61.2884C121.89 60.9287 122.39 60.3032 122.421 59.3494C122.461 58.333 121.843 57.6919 121.296 57.1055L117.105 52.7662L116.526 53.3291V53.3448ZM119.169 56.1438C120.248 57.2462 120.529 57.5277 120.568 58.0828C120.631 58.7161 120.24 59.2947 119.771 59.7403C119.224 60.272 118.504 60.6473 117.785 60.4283C117.292 60.272 116.995 59.9592 116.135 59.0679L119.161 56.1438H119.169ZM121.686 66.3626C119.138 67.551 118.379 69.8262 118.34 71.3665C118.309 72.3985 118.551 73.2742 118.942 74.1108C119.701 75.7292 120.647 76.5345 121.702 77.0583C122.335 77.3711 123.023 77.5744 123.727 77.6369C124.916 77.7386 126.041 77.4336 126.831 77.0662C129.528 75.8074 131.053 72.7034 129.497 69.3649C127.98 66.1124 125.056 65.6511 123.524 65.8466C122.805 65.9248 122.179 66.1515 121.694 66.3782L121.686 66.3626ZM128.645 69.7089C129.13 70.7488 128.973 71.6166 128.762 72.1327C128.45 72.8676 127.535 73.9075 125.76 74.7362C124.697 75.2288 123.383 75.6041 122.445 75.5728C121.741 75.5494 121.038 75.3383 120.404 74.5642C120.201 74.3375 120.037 74.0639 119.904 73.7824C118.715 71.2335 120.811 69.5838 122.805 68.6534C124.024 68.0905 125.197 67.7856 126.127 67.8638C127.003 67.9263 127.589 68.2938 128.059 68.8176C128.309 69.1069 128.496 69.404 128.637 69.7089H128.645ZM87.3944 88.3014C90.2795 88.3014 92.6329 89.224 92.6329 90.3655C92.6329 90.7251 92.3983 91.0535 91.9917 91.3506C95.0331 92.9925 97.1129 96.2215 97.1129 99.9119C97.1129 105.268 92.7501 109.638 87.3944 109.638C82.0387 109.638 77.676 105.268 77.676 99.9119C77.676 96.2137 79.7558 93.0003 82.7972 91.3506C82.3906 91.0535 82.156 90.7173 82.156 90.3655C82.156 89.2318 84.5094 88.3014 87.3944 88.3014Z" fill="#F8C11A"/>
<path fill-rule="evenodd" clip-rule="evenodd" d="M82.6955 88.3561C82.6955 88.3561 80.1702 86.7142 77.5744 86.9331C72.9615 87.3163 67.3478 88.8721 65.1195 82.6642C69.0913 83.2663 70.6628 82.5391 72.9458 81.3898C71.9373 80.6861 63.1649 79.8027 66.2376 73.9309C69.2711 78.3484 73.0866 74.5564 74.9865 76.9254C75.2836 73.3055 67.7778 74.5017 70.3345 68.6691C71.9138 70.6863 74.4392 70.5064 76.0811 72.3907C76.7222 69.4978 71.4291 66.3548 73.7355 64.5487C74.8927 65.956 78.1373 66.2062 78.9583 68.9505C79.8887 67.2696 75.8465 63.8294 79.0677 60.4753C79.9121 63.6339 81.382 64.6504 82.5235 66.863C83.2663 65.1351 80.8426 60.8427 82.891 58.7865C85.776 59.9749 85.1818 63.3056 85.8855 63.4541C86.2061 61.9999 87.5039 59.0054 87.8089 56.8866C91.7181 56.2533 90.561 63.6027 90.647 63.6574C91.4757 61.9061 95.0488 61.218 95.213 59.0679C97.4335 61.2728 94.0402 65.3384 93.6728 65.7371C95.1817 65.6042 97.84 62.8599 98.3248 61.7106C99.3021 62.3673 99.4272 66.2141 97.1598 68.6065C98.5437 68.458 101.499 68.8645 102.39 65.1273C105.15 70.9912 99.779 70.9443 99.3099 72.9536C100.491 72.0858 104.329 74.4 105.682 69.404C108.755 75.1428 101.89 75.7917 101.695 77.0662C103.211 76.8394 106.096 79.5446 108.809 76.7143C109.193 83.4539 101.89 80.9676 101.265 82.5704C102.492 82.5235 107.582 85.2443 110.373 84.6032C105.666 92.1481 98.7782 85.1662 92.8674 89.0676C91.2177 87.6446 86.3781 87.199 82.7034 88.3639L82.6955 88.3561Z" fill="#E31E24"/>
</svg>
